# xmcd
# 
# Track frame offsets:
#     150
#     13355
#     32380
#     53727
#     74197
#     95345
#     102317
#     122695
#     141467
#     162170
#     182660
#     208127
#     235152
# 
# Disc length: 3422
# 
# Revision: 10
# Processed by: cddbd v1.5.2PL0 Copyright (c) Steve Scherf et al.
# Submitted via: fre:ac v1.0.31
# 
DISCID=bb0d5c0d
DTITLE=TWO-MIX - FANTASTIX
DYEAR=1997
DGENRE=seiyu
TTITLE0=BELIEVE MY BRAVE HEART
TTITLE1=TRUE NAVIGATION
TTITLE2=WHITE REFLECTION
TTITLE3=SUMMER PLANET NO.1
TTITLE4=MISSING YOU
TTITLE5=BEAT "BREAK"
TTITLE6=BREAK
TTITLE7=BURNING
TTITLE8=CAN'T STOP LOVE
TTITLE9=WINTER PLANET NO.1
TTITLE10=WAKE
TTITLE11=LIVING DAYLIGHTS
TTITLE12=BELIEVE MY BRAVE HEART
EXTD=YEAR: 1997
EXTT0=
EXTT1=
EXTT2=
EXTT3=
EXTT4=
EXTT5=
EXTT6=
EXTT7=
EXTT8=
EXTT9=
EXTT10=
EXTT11=
EXTT12=
PLAYORDER=
